<?xml version="1.0" encoding="UTF-8"?>
<!DOCTYPE svg PUBLIC "-//W3C//DTD SVG 1.1//EN" "http://www.w3.org/Graphics/SVG/1.1/DTD/svg11.dtd">
<svg xmlns="http://www.w3.org/2000/svg" version="1.1" width="550px" height="550px" style="shape-rendering:geometricPrecision; text-rendering:geometricPrecision; image-rendering:optimizeQuality; fill-rule:evenodd; clip-rule:evenodd" xmlns:xlink="http://www.w3.org/1999/xlink">
<g><path style="opacity:0.987" fill="#fef9f5" d="M 382.5,178.5 C 382.833,178.5 383.167,178.5 383.5,178.5C 383.47,179.497 383.97,180.164 385,180.5C 390.468,177.829 396.302,176.829 402.5,177.5C 402.433,176.041 402.766,174.708 403.5,173.5C 404.167,173.5 404.5,173.833 404.5,174.5C 403.766,175.708 403.433,177.041 403.5,178.5C 405.308,178.509 406.975,178.009 408.5,177C 410.106,173.695 412.773,172.195 416.5,172.5C 416.5,171.167 416.5,169.833 416.5,168.5C 416.833,168.5 417.167,168.5 417.5,168.5C 424.17,169.837 431.004,171.504 438,173.5C 446.557,164.016 457.39,159.016 470.5,158.5C 475.45,158.738 480.117,159.904 484.5,162C 488.097,165.318 491.597,168.818 495,172.5C 496.836,178.19 498.503,183.857 500,189.5C 511.02,197.561 514.686,208.227 511,221.5C 503.929,236.789 492.095,245.955 475.5,249C 469.138,249.424 462.805,249.424 456.5,249C 446.908,257.641 435.575,261.308 422.5,260C 418.522,264.386 413.522,266.553 407.5,266.5C 410.232,280.55 410.065,294.55 407,308.5C 405.098,312.896 402.598,316.896 399.5,320.5C 397.473,320.338 395.473,320.505 393.5,321C 390.964,323.705 388.297,326.205 385.5,328.5C 372.366,329.532 362.199,324.532 355,313.5C 351.47,306.733 348.636,299.733 346.5,292.5C 345.5,292.5 344.5,292.5 343.5,292.5C 343.5,292.167 343.5,291.833 343.5,291.5C 344.497,291.53 345.164,291.03 345.5,290C 344.713,287.901 344.38,285.734 344.5,283.5C 340.796,283.276 337.129,283.11 333.5,283C 324.906,290.691 314.906,293.191 303.5,290.5C 290.52,301.211 276.02,303.877 260,298.5C 255.102,303.389 249.602,307.556 243.5,311C 235.991,313.033 228.325,314.033 220.5,314C 215.21,318.934 208.877,321.434 201.5,321.5C 199.5,321.167 197.5,320.833 195.5,320.5C 192.507,318.363 189.34,316.363 186,314.5C 179.154,326.171 168.987,332.838 155.5,334.5C 153.167,334.5 150.833,334.5 148.5,334.5C 142.487,334.501 137.153,332.667 132.5,329C 131.207,328.51 129.873,328.343 128.5,328.5C 121.685,342.475 110.351,349.475 94.5,349.5C 83.9061,349.41 75.0727,345.41 68,337.5C 56.5964,321.46 50.4298,303.46 49.5,283.5C 48.7006,270.516 48.3672,257.516 48.5,244.5C 48.6602,242.801 48.4935,241.134 48,239.5C 47.31,240.738 46.81,240.738 46.5,239.5C 46.5,238.167 46.5,236.833 46.5,235.5C 47.1515,236.091 47.8182,236.757 48.5,237.5C 50.8915,228.154 54.2248,219.154 58.5,210.5C 67.3494,199.614 78.6828,195.781 92.5,199C 101.425,203.262 107.592,210.096 111,219.5C 112.373,226.986 113.539,234.486 114.5,242C 113.741,249.202 112.741,256.369 111.5,263.5C 113.584,264.248 115.584,264.248 117.5,263.5C 125.884,250.353 138.05,243.686 154,243.5C 159.438,243.984 164.605,245.317 169.5,247.5C 172.633,245.249 174.799,242.249 176,238.5C 182.009,234.709 189.009,232.376 197,231.5C 199.59,231.376 201.923,232.042 204,233.5C 205.599,231.944 207.099,230.277 208.5,228.5C 213.825,225.612 219.491,223.779 225.5,223C 226.056,222.617 226.389,222.117 226.5,221.5C 228.058,211.697 229.058,201.697 229.5,191.5C 228.5,191.5 227.5,191.5 226.5,191.5C 226.5,190.833 226.833,190.5 227.5,190.5C 228.496,190.586 229.329,190.252 230,189.5C 232.7,177.084 239.534,167.75 250.5,161.5C 261.547,156.441 271.38,158.107 280,166.5C 282.752,169.737 285.252,173.071 287.5,176.5C 302.393,170.853 313.893,174.853 322,188.5C 323.145,193.083 323.811,197.749 324,202.5C 327.926,200.409 331.426,197.742 334.5,194.5C 337.879,192.308 341.545,190.974 345.5,190.5C 345.393,188.097 346.393,186.264 348.5,185C 356.596,181.967 364.929,180.967 373.5,182C 378.577,186.087 381.577,184.92 382.5,178.5 Z"/></g>
<g><path style="opacity:0.031" fill="#f5b988" d="M 416.5,168.5 C 416.5,169.833 416.5,171.167 416.5,172.5C 412.773,172.195 410.106,173.695 408.5,177C 406.975,178.009 405.308,178.509 403.5,178.5C 403.433,177.041 403.766,175.708 404.5,174.5C 408.194,171.986 412.194,169.986 416.5,168.5 Z"/></g>
<g><path style="opacity:1" fill="#ffceb2" d="M 275.5,204.5 C 275.928,195.88 274.595,187.547 271.5,179.5C 269.061,176.887 266.228,174.887 263,173.5C 261.989,174.337 260.822,174.67 259.5,174.5C 259.97,173.307 260.97,172.64 262.5,172.5C 266.564,173.221 269.898,175.221 272.5,178.5C 276.15,187.031 277.15,195.697 275.5,204.5 Z"/></g>
<g><path style="opacity:1" fill="#ff9528" d="M 275.5,204.5 C 273.922,211.835 271.589,218.835 268.5,225.5C 274.139,224.34 279.805,223.34 285.5,222.5C 287.452,226.574 286.785,230.074 283.5,233C 276.424,235.94 269.091,238.273 261.5,240C 260.376,240.839 259.709,242.006 259.5,243.5C 260.654,252.132 263.488,260.132 268,267.5C 274.014,273.574 280.514,274.074 287.5,269C 290.361,266.106 292.861,262.939 295,259.5C 295.024,250.489 294.524,241.489 293.5,232.5C 293.448,228.413 293.948,224.413 295,220.5C 297.904,218.773 301.07,218.107 304.5,218.5C 306.494,228.542 307.828,238.542 308.5,248.5C 309.181,253.409 310.848,257.909 313.5,262C 317.26,263.176 320.093,262.01 322,258.5C 323,256.833 324,255.167 325,253.5C 324.854,248.176 324.854,242.843 325,237.5C 325.614,226.353 330.114,217.187 338.5,210C 340.527,208.121 342.86,206.954 345.5,206.5C 348.764,205.676 352.098,205.342 355.5,205.5C 355.517,203.435 355.85,201.435 356.5,199.5C 359.324,197.651 362.491,196.318 366,195.5C 367.011,196.337 368.178,196.67 369.5,196.5C 368.614,222.612 369.78,248.612 373,274.5C 374.297,280.057 375.797,285.557 377.5,291C 379.005,293.552 380.838,295.718 383,297.5C 383.772,297.355 384.439,297.022 385,296.5C 385.717,287.464 385.384,278.464 384,269.5C 381.698,259.781 378.864,250.281 375.5,241C 375.615,239.105 376.282,237.438 377.5,236C 381.043,233.709 384.876,232.209 389,231.5C 388.695,224.017 388.195,216.517 387.5,209C 387.494,204.764 387.994,200.598 389,196.5C 392.171,193.469 395.838,192.469 400,193.5C 400.254,206.94 402.087,220.107 405.5,233C 406.833,233.667 408.167,233.667 409.5,233C 410.819,230.715 412.319,228.548 414,226.5C 416.162,213.09 417.996,199.757 419.5,186.5C 422.118,186.221 424.618,185.554 427,184.5C 427.667,185.167 428.333,185.833 429,186.5C 429.836,200.222 431.169,213.889 433,227.5C 434.525,230.087 436.692,230.92 439.5,230C 442.638,226.858 444.972,223.192 446.5,219C 443.338,208.285 443.838,197.785 448,187.5C 454.338,176.203 463.838,172.036 476.5,175C 485.118,183.324 486.618,192.824 481,203.5C 476.53,209.137 471.03,213.47 464.5,216.5C 463.167,217.5 463.167,218.5 464.5,219.5C 477.402,223.458 485.902,218.792 490,205.5C 491.667,204.167 493.333,204.167 495,205.5C 497.83,215.008 495.33,222.842 487.5,229C 480.355,233.036 472.688,234.703 464.5,234C 460.532,233.46 457.032,231.96 454,229.5C 450.858,233.584 447.358,237.418 443.5,241C 434.469,246.955 427.469,245.455 422.5,236.5C 422.251,234.064 421.251,232.064 419.5,230.5C 418.914,230.709 418.414,231.043 418,231.5C 417.503,233.81 417.337,236.143 417.5,238.5C 416.046,248.823 410.379,252.99 400.5,251C 398.649,249.316 396.982,247.483 395.5,245.5C 389.006,242.809 386.173,244.809 387,251.5C 388.979,258.186 390.812,264.853 392.5,271.5C 393.266,280.479 393.599,289.479 393.5,298.5C 391.753,311.807 384.92,315.807 373,310.5C 366.551,302.262 362.217,292.928 360,282.5C 358.919,274.853 358.086,267.186 357.5,259.5C 356.5,259.5 355.5,259.5 354.5,259.5C 354.059,264.258 351.392,267.091 346.5,268C 340.784,268.822 335.784,267.322 331.5,263.5C 328.5,266.833 325.5,270.167 322.5,273.5C 317.862,276.185 312.862,277.018 307.5,276C 305.697,275.363 304.364,274.197 303.5,272.5C 302.277,271.386 300.944,271.219 299.5,272C 291.614,284.062 280.614,288.395 266.5,285C 263.013,282.183 259.513,279.35 256,276.5C 255.228,276.645 254.561,276.978 254,277.5C 250.535,287.297 244.035,294.13 234.5,298C 226.416,299.103 221.416,295.603 219.5,287.5C 218.675,286.614 217.675,286.281 216.5,286.5C 215.65,291.232 214.484,295.899 213,300.5C 206.715,308.487 200.382,308.487 194,300.5C 191.779,295.839 189.945,291.006 188.5,286C 184.177,285.539 180.344,286.706 177,289.5C 175.611,314.584 163.111,323.417 139.5,316C 135.43,311.862 132.097,307.195 129.5,302C 126.743,301.416 124.077,301.75 121.5,303C 120.963,311.204 118.463,318.704 114,325.5C 103.787,336.043 92.7866,337.043 81,328.5C 76.757,321.686 72.757,314.686 69,307.5C 68.338,305.187 67.838,302.854 67.5,300.5C 67.8023,296.21 67.1357,292.21 65.5,288.5C 63.68,273.887 63.18,259.22 64,244.5C 64.8151,236.203 66.8151,228.203 70,220.5C 81.3877,208.579 90.2211,210.246 96.5,225.5C 98.1606,233.397 98.8273,241.397 98.5,249.5C 97.4264,257.795 95.4264,265.795 92.5,273.5C 101.706,273.519 109.206,277.186 115,284.5C 116.411,286.65 117.245,288.984 117.5,291.5C 120.677,290.332 123.844,288.999 127,287.5C 127.412,276.111 132.246,267.278 141.5,261C 157.044,255.309 167.878,260.143 174,275.5C 174.561,276.022 175.228,276.355 176,276.5C 178.738,274.88 181.572,273.38 184.5,272C 185.314,265.247 185.814,258.414 186,251.5C 189.238,247.66 193.238,246.326 198,247.5C 199.177,259.149 200.177,270.816 201,282.5C 201.58,286.426 203.747,287.926 207.5,287C 209.81,285.363 211.31,283.196 212,280.5C 214.211,268.6 215.544,256.6 216,244.5C 216.923,243.241 217.757,241.908 218.5,240.5C 220.709,239.894 222.876,239.227 225,238.5C 225.667,239.167 226.333,239.833 227,240.5C 227.801,253.854 228.801,267.188 230,280.5C 231.334,284.104 233.834,285.271 237.5,284C 240.788,279.923 243.955,275.756 247,271.5C 248.549,268.862 249.715,266.029 250.5,263C 248.609,257.269 247.109,251.435 246,245.5C 245.439,244.978 244.772,244.645 244,244.5C 234.963,249.126 231.296,246.459 233,236.5C 235.849,234.691 239.015,233.691 242.5,233.5C 242.334,223.494 242.5,213.494 243,203.5C 244.171,192.329 248.671,182.829 256.5,175C 257.448,174.517 258.448,174.351 259.5,174.5C 260.822,174.67 261.989,174.337 263,173.5C 266.228,174.887 269.061,176.887 271.5,179.5C 274.595,187.547 275.928,195.88 275.5,204.5 Z"/></g>
<g><path style="opacity:0.024" fill="#deb974" d="M 403.5,173.5 C 402.766,174.708 402.433,176.041 402.5,177.5C 396.302,176.829 390.468,177.829 385,180.5C 383.97,180.164 383.47,179.497 383.5,178.5C 389.623,175.137 396.29,173.47 403.5,173.5 Z"/></g>
<g><path style="opacity:0.047" fill="#e0b77c" d="M 414.5,275.5 C 413.235,276.514 412.569,278.014 412.5,280C 412.764,284.042 413.43,287.875 414.5,291.5C 415.121,301.069 412.954,310.069 408,318.5C 406.669,320.996 404.836,322.996 402.5,324.5C 401.143,323.41 400.143,322.076 399.5,320.5C 402.598,316.896 405.098,312.896 407,308.5C 410.065,294.55 410.232,280.55 407.5,266.5C 413.522,266.553 418.522,264.386 422.5,260C 435.575,261.308 446.908,257.641 456.5,249C 462.805,249.424 469.138,249.424 475.5,249C 492.095,245.955 503.929,236.789 511,221.5C 514.686,208.227 511.02,197.561 500,189.5C 498.503,183.857 496.836,178.19 495,172.5C 491.597,168.818 488.097,165.318 484.5,162C 480.117,159.904 475.45,158.738 470.5,158.5C 457.39,159.016 446.557,164.016 438,173.5C 431.004,171.504 424.17,169.837 417.5,168.5C 424.405,165.049 431.239,165.049 438,168.5C 449.12,159.237 461.953,154.737 476.5,155C 493.653,158.886 503.153,169.719 505,187.5C 516.512,196.51 520.179,208.176 516,222.5C 508.555,241.263 494.722,251.763 474.5,254C 469.913,254.799 465.413,254.632 461,253.5C 450.917,261.305 439.417,265.139 426.5,265C 423.036,267.047 419.37,268.713 415.5,270C 413.365,271.556 413.032,273.389 414.5,275.5 Z"/></g>
<g><path style="opacity:0.067" fill="#e7b97d" d="M 382.5,178.5 C 381.577,184.92 378.577,186.087 373.5,182C 364.929,180.967 356.596,181.967 348.5,185C 346.393,186.264 345.393,188.097 345.5,190.5C 341.545,190.974 337.879,192.308 334.5,194.5C 331.426,197.742 327.926,200.409 324,202.5C 323.811,197.749 323.145,193.083 322,188.5C 313.893,174.853 302.393,170.853 287.5,176.5C 285.252,173.071 282.752,169.737 280,166.5C 271.38,158.107 261.547,156.441 250.5,161.5C 239.534,167.75 232.7,177.084 230,189.5C 229.329,190.252 228.496,190.586 227.5,190.5C 231.445,169.056 244.279,157.056 266,154.5C 276.733,156.05 284.566,161.55 289.5,171C 309.698,166.375 323.031,173.875 329.5,193.5C 338.606,188.901 347.606,184.068 356.5,179C 363.81,176.839 370.976,177.006 378,179.5C 379.533,179.227 381.033,178.894 382.5,178.5 Z"/></g>
<g><path style="opacity:1" fill="#fff5f0" d="M 463.5,186.5 C 472.008,185.523 474.842,189.19 472,197.5C 468.784,202.896 464.284,206.562 458.5,208.5C 457.519,203.871 457.352,199.204 458,194.5C 459.117,191.241 460.95,188.574 463.5,186.5 Z"/></g>
<g><path style="opacity:1" fill="#fffdfc" d="M 257.5,187.5 C 261.849,187.685 264.016,190.019 264,194.5C 265.042,203.042 264.209,211.375 261.5,219.5C 260.559,221.05 259.893,222.716 259.5,224.5C 257.78,222.342 256.947,219.675 257,216.5C 256.275,206.806 256.441,197.14 257.5,187.5 Z"/></g>
<g><path style="opacity:1" fill="#ff962c" d="M 293.5,189.5 C 307.82,187.993 311.486,193.493 304.5,206C 292.031,211.847 286.531,208.013 288,194.5C 289.812,192.7 291.645,191.033 293.5,189.5 Z"/></g>
<g><path style="opacity:1" fill="#ffd6c0" d="M 261.5,219.5 C 264.209,211.375 265.042,203.042 264,194.5C 264.016,190.019 261.849,187.685 257.5,187.5C 258.314,185.727 259.648,185.227 261.5,186C 263.378,187.543 264.878,189.376 266,191.5C 266.667,197.5 266.667,203.5 266,209.5C 264.792,213.07 263.292,216.403 261.5,219.5 Z"/></g>
<g><path style="opacity:1" fill="#ffb88d" d="M 356.5,199.5 C 355.85,201.435 355.517,203.435 355.5,205.5C 352.098,205.342 348.764,205.676 345.5,206.5C 345.611,205.883 345.944,205.383 346.5,205C 349.146,204.503 351.813,204.336 354.5,204.5C 354.12,202.302 354.787,200.635 356.5,199.5 Z"/></g>
<g><path style="opacity:0.163" fill="#edcfab" d="M 226.5,191.5 C 227.5,191.5 228.5,191.5 229.5,191.5C 229.058,201.697 228.058,211.697 226.5,221.5C 225.366,219.161 224.366,216.827 223.5,214.5C 224.245,206.831 225.245,199.164 226.5,191.5 Z"/></g>
<g><path style="opacity:1" fill="#fff9f7" d="M 354.5,216.5 C 354.69,227.857 354.356,239.19 353.5,250.5C 349.271,257.015 345.104,257.015 341,250.5C 338.72,241.708 339.053,233.042 342,224.5C 344.466,220.034 348.133,217.034 353,215.5C 353.765,215.57 354.265,215.903 354.5,216.5 Z"/></g>
<g><path style="opacity:1" fill="#ffd8c3" d="M 257.5,187.5 C 256.441,197.14 256.275,206.806 257,216.5C 256.947,219.675 257.78,222.342 259.5,224.5C 258.791,225.404 257.791,225.737 256.5,225.5C 254.61,215.252 254.11,204.919 255,194.5C 255.156,191.809 255.989,189.476 257.5,187.5 Z"/></g>
<g><path style="opacity:1" fill="#fff7f3" d="M 86.5,229.5 C 87.7433,240.49 87.7433,251.49 86.5,262.5C 85.6119,270.053 83.7785,277.386 81,284.5C 80.6667,284.167 80.3333,283.833 80,283.5C 76.2777,264.943 75.6111,246.277 78,227.5C 81.5785,224.602 84.4118,225.269 86.5,229.5 Z"/></g>
<g><path style="opacity:1" fill="#ffb88d" d="M 422.5,236.5 C 421.15,235.517 420.15,234.184 419.5,232.5C 418.831,234.631 418.165,236.631 417.5,238.5C 417.337,236.143 417.503,233.81 418,231.5C 418.414,231.043 418.914,230.709 419.5,230.5C 421.251,232.064 422.251,234.064 422.5,236.5 Z"/></g>
<g><path style="opacity:1" fill="#ffb17e" d="M 304.5,218.5 C 306.067,219.681 306.901,221.347 307,223.5C 308.184,231.792 308.684,240.125 308.5,248.5C 307.828,238.542 306.494,228.542 304.5,218.5 Z"/></g>
<g><path style="opacity:1" fill="#ffb78a" d="M 96.5,225.5 C 97.7763,227.562 98.6097,229.896 99,232.5C 99.8184,238.349 99.6517,244.015 98.5,249.5C 98.8273,241.397 98.1606,233.397 96.5,225.5 Z"/></g>
<g><path style="opacity:0.004" fill="#e6b97b" d="M 223.5,214.5 C 224.366,216.827 225.366,219.161 226.5,221.5C 226.389,222.117 226.056,222.617 225.5,223C 219.491,223.779 213.825,225.612 208.5,228.5C 207.099,230.277 205.599,231.944 204,233.5C 201.923,232.042 199.59,231.376 197,231.5C 189.009,232.376 182.009,234.709 176,238.5C 174.799,242.249 172.633,245.249 169.5,247.5C 164.605,245.317 159.438,243.984 154,243.5C 138.05,243.686 125.884,250.353 117.5,263.5C 115.584,264.248 113.584,264.248 111.5,263.5C 112.741,256.369 113.741,249.202 114.5,242C 113.539,234.486 112.373,226.986 111,219.5C 107.592,210.096 101.425,203.262 92.5,199C 78.6828,195.781 67.3494,199.614 58.5,210.5C 54.2248,219.154 50.8915,228.154 48.5,237.5C 47.8182,236.757 47.1515,236.091 46.5,235.5C 48.0763,221.849 53.743,210.349 63.5,201C 84.1305,188.582 100.964,192.415 114,212.5C 119.731,226.91 121.398,241.576 119,256.5C 133.144,241.452 150.144,236.786 170,242.5C 178.55,231.643 189.717,226.977 203.5,228.5C 209.232,224.419 215.566,221.585 222.5,220C 223.406,218.301 223.739,216.467 223.5,214.5 Z"/></g>
<g><path style="opacity:1" fill="#ffc8ab" d="M 354.5,216.5 C 355.658,226.325 355.825,236.325 355,246.5C 354.79,248.058 354.29,249.391 353.5,250.5C 354.356,239.19 354.69,227.857 354.5,216.5 Z"/></g>
<g><path style="opacity:0.024" fill="#f2a66a" d="M 46.5,239.5 C 46.81,240.738 47.31,240.738 48,239.5C 48.4935,241.134 48.6602,242.801 48.5,244.5C 47.448,244.351 46.448,244.517 45.5,245C 46.7785,247.498 46.7785,249.998 45.5,252.5C 45.1667,252.5 44.8333,252.5 44.5,252.5C 44.1561,247.878 44.8227,243.545 46.5,239.5 Z"/></g>
<g><path style="opacity:1" fill="#ffcdb3" d="M 86.5,229.5 C 87.2679,230.263 87.7679,231.263 88,232.5C 88.6667,241.167 88.6667,249.833 88,258.5C 87.79,260.058 87.29,261.391 86.5,262.5C 87.7433,251.49 87.7433,240.49 86.5,229.5 Z"/></g>
<g><path style="opacity:0.086" fill="#e2c6b3" d="M 48.5,244.5 C 48.3672,257.516 48.7006,270.516 49.5,283.5C 48.5935,279.322 47.7602,274.988 47,270.5C 46.8213,274.025 46.3213,277.359 45.5,280.5C 44.6903,275.108 44.357,269.775 44.5,264.5C 46.0672,265.681 46.9005,267.347 47,269.5C 47.8766,263.685 47.3766,258.018 45.5,252.5C 46.7785,249.998 46.7785,247.498 45.5,245C 46.448,244.517 47.448,244.351 48.5,244.5 Z"/></g>
<g><path style="opacity:0.012" fill="#e3d278" d="M 44.5,252.5 C 44.8333,252.5 45.1667,252.5 45.5,252.5C 47.3766,258.018 47.8766,263.685 47,269.5C 46.9005,267.347 46.0672,265.681 44.5,264.5C 44.5,260.5 44.5,256.5 44.5,252.5 Z"/></g>
<g><path style="opacity:1" fill="#ffb98e" d="M 147.5,272.5 C 148.919,271.549 150.585,271.216 152.5,271.5C 152.998,276.667 154.665,281.334 157.5,285.5C 153.6,282.17 151.6,277.836 151.5,272.5C 150.167,272.5 148.833,272.5 147.5,272.5 Z"/></g>
<g><path style="opacity:1" fill="#fff7f4" d="M 147.5,272.5 C 148.833,272.5 150.167,272.5 151.5,272.5C 151.6,277.836 153.6,282.17 157.5,285.5C 159.213,287.85 161.547,288.85 164.5,288.5C 165.197,293.609 164.197,298.276 161.5,302.5C 154.988,308.301 149.155,307.634 144,300.5C 141.579,293.015 140.912,285.348 142,277.5C 143.704,275.627 145.537,273.96 147.5,272.5 Z"/></g>
<g><path style="opacity:0.008" fill="#fffe69" d="M 414.5,275.5 C 414.5,280.833 414.5,286.167 414.5,291.5C 413.43,287.875 412.764,284.042 412.5,280C 412.569,278.014 413.235,276.514 414.5,275.5 Z"/></g>
<g><path style="opacity:1" fill="#ffba90" d="M 392.5,271.5 C 394.052,276.401 394.719,281.568 394.5,287C 394.499,291.015 394.165,294.849 393.5,298.5C 393.599,289.479 393.266,280.479 392.5,271.5 Z"/></g>
<g><path style="opacity:1" fill="#fff8f4" d="M 90.5,286.5 C 91.8333,286.5 93.1667,286.5 94.5,286.5C 94.9675,295.07 99.1342,301.07 107,304.5C 108.242,309.694 107.242,314.36 104,318.5C 98.2954,323.049 93.2954,322.382 89,316.5C 84.8831,309.343 83.5498,301.676 85,293.5C 85.9668,290.379 87.8001,288.046 90.5,286.5 Z"/></g>
<g><path style="opacity:1" fill="#ffb88d" d="M 65.5,288.5 C 67.1357,292.21 67.8023,296.21 67.5,300.5C 65.8643,296.79 65.1977,292.79 65.5,288.5 Z"/></g>
<g><path style="opacity:0.055" fill="#e3b77a" d="M 343.5,291.5 C 341.947,288.746 339.614,287.913 336.5,289C 326.788,294.677 316.454,297.344 305.5,297C 297.09,301.859 288.09,305.025 278.5,306.5C 275.363,303.255 272.363,303.255 269.5,306.5C 267.196,305.837 264.863,305.17 262.5,304.5C 259.062,306.435 256.062,308.935 253.5,312C 251.167,313 248.833,314 246.5,315C 232.158,317.549 218.158,321.049 204.5,325.5C 203.853,323.859 202.853,322.526 201.5,321.5C 208.877,321.434 215.21,318.934 220.5,314C 228.325,314.033 235.991,313.033 243.5,311C 249.602,307.556 255.102,303.389 260,298.5C 276.02,303.877 290.52,301.211 303.5,290.5C 314.906,293.191 324.906,290.691 333.5,283C 337.129,283.11 340.796,283.276 344.5,283.5C 344.38,285.734 344.713,287.901 345.5,290C 345.164,291.03 344.497,291.53 343.5,291.5 Z"/></g>
<g><path style="opacity:0.012" fill="#e3e06e" d="M 278.5,306.5 C 275.5,306.5 272.5,306.5 269.5,306.5C 272.363,303.255 275.363,303.255 278.5,306.5 Z"/></g>
<g><path style="opacity:0.035" fill="#ddb879" d="M 343.5,292.5 C 344.5,292.5 345.5,292.5 346.5,292.5C 348.636,299.733 351.47,306.733 355,313.5C 362.199,324.532 372.366,329.532 385.5,328.5C 385.267,330.062 384.6,331.395 383.5,332.5C 380.477,329.966 378.144,330.299 376.5,333.5C 369.349,331.054 362.849,327.388 357,322.5C 350.065,313.627 345.565,303.627 343.5,292.5 Z"/></g>
<g><path style="opacity:0.951" fill="#03d9b3" d="M 195.5,320.5 C 197.5,320.833 199.5,321.167 201.5,321.5C 202.853,322.526 203.853,323.859 204.5,325.5C 199.647,338.723 194.981,352.056 190.5,365.5C 190.667,365.833 190.833,366.167 191,366.5C 196.617,361.718 203.117,360.218 210.5,362C 213.333,363.5 215.5,365.667 217,368.5C 215.838,380.122 215.505,391.789 216,403.5C 211.705,407.323 207.205,407.489 202.5,404C 200.91,402.954 199.41,401.787 198,400.5C 196.157,395.313 194.99,390.313 194.5,385.5C 188.604,389.247 184.77,394.581 183,401.5C 180.186,402.966 177.353,404.466 174.5,406C 159.272,406.738 154.438,399.905 160,385.5C 162.132,378.105 164.465,370.772 167,363.5C 171.741,351.027 177.241,339.027 183.5,327.5C 183.297,325.61 183.963,324.11 185.5,323C 188.679,321.539 192.012,320.705 195.5,320.5 Z"/></g>
<g><path style="opacity:0.946" fill="#06dab3" d="M 399.5,320.5 C 400.143,322.076 401.143,323.41 402.5,324.5C 403.777,326.148 404.777,327.982 405.5,330C 395.877,351.757 388.377,374.257 383,397.5C 380.23,405.305 374.73,409.138 366.5,409C 365.219,406.597 363.386,404.763 361,403.5C 364.03,378.909 371.197,355.575 382.5,333.5C 383.167,333.5 383.5,333.167 383.5,332.5C 384.6,331.395 385.267,330.062 385.5,328.5C 388.297,326.205 390.964,323.705 393.5,321C 395.473,320.505 397.473,320.338 399.5,320.5 Z"/></g>
<g><path style="opacity:0.051" fill="#e7b67a" d="M 195.5,320.5 C 192.012,320.705 188.679,321.539 185.5,323C 183.963,324.11 183.297,325.61 183.5,327.5C 175.069,334.207 165.402,338.207 154.5,339.5C 154.629,337.784 154.962,336.117 155.5,334.5C 168.987,332.838 179.154,326.171 186,314.5C 189.34,316.363 192.507,318.363 195.5,320.5 Z"/></g>
<g><path style="opacity:0.004" fill="#fdfc40" d="M 383.5,332.5 C 383.5,333.167 383.167,333.5 382.5,333.5C 380.5,333.5 378.5,333.5 376.5,333.5C 378.144,330.299 380.477,329.966 383.5,332.5 Z"/></g>
<g><path style="opacity:0.067" fill="#ead272" d="M 148.5,334.5 C 150.833,334.5 153.167,334.5 155.5,334.5C 154.962,336.117 154.629,337.784 154.5,339.5C 152.167,339.5 149.833,339.5 147.5,339.5C 148.23,338.288 149.23,337.288 150.5,336.5C 149.757,335.818 149.091,335.151 148.5,334.5 Z"/></g>
<g><path style="opacity:0.035" fill="#e2b677" d="M 49.5,283.5 C 50.4298,303.46 56.5964,321.46 68,337.5C 75.0727,345.41 83.9061,349.41 94.5,349.5C 110.351,349.475 121.685,342.475 128.5,328.5C 129.873,328.343 131.207,328.51 132.5,329C 137.153,332.667 142.487,334.501 148.5,334.5C 149.091,335.151 149.757,335.818 150.5,336.5C 149.23,337.288 148.23,338.288 147.5,339.5C 143.699,338.799 140.032,337.632 136.5,336C 134.833,335.333 133.167,335.333 131.5,336C 124.336,346.587 114.336,352.587 101.5,354C 81.3168,355.159 66.8168,346.659 58,328.5C 55.7248,321.674 53.0581,315.007 50,308.5C 48.82,299.102 47.32,289.769 45.5,280.5C 46.3213,277.359 46.8213,274.025 47,270.5C 47.7602,274.988 48.5935,279.322 49.5,283.5 Z"/></g>
<g><path style="opacity:0.944" fill="#02d9b3" d="M 342.5,389.5 C 347.782,388.647 352.448,389.814 356.5,393C 359.167,396 359.167,399 356.5,402C 353.36,403.716 350.027,405.049 346.5,406C 338.833,406.667 331.167,406.667 323.5,406C 316.308,403.023 312.641,397.523 312.5,389.5C 314.054,374.654 321.054,363.154 333.5,355C 340.961,351.487 348.628,350.82 356.5,353C 360.895,355.743 363.228,359.743 363.5,365C 362.643,378.676 355.643,386.842 342.5,389.5 Z M 339.5,371.5 C 340.552,371.351 341.552,371.517 342.5,372C 340.904,375.048 338.737,377.548 336,379.5C 336.38,376.579 337.547,373.912 339.5,371.5 Z M 342.5,389.5 C 340.604,390.481 338.604,391.481 336.5,392.5C 335.692,392.192 335.025,391.692 334.5,391C 337.117,390.178 339.784,389.678 342.5,389.5 Z"/></g>
<g><path style="opacity:0.949" fill="#02d9b3" d="M 306.5,318.5 C 315.55,318.377 319.383,322.71 318,331.5C 315.682,336.805 313.182,341.972 310.5,347C 314.167,347.333 317.833,347.667 321.5,348C 323.444,350.153 323.944,352.653 323,355.5C 322.5,357.333 321.333,358.5 319.5,359C 315.017,360.386 310.517,361.553 306,362.5C 300.943,377.611 295.609,392.611 290,407.5C 285.021,410.301 280.188,409.968 275.5,406.5C 275.627,393.282 277.627,380.282 281.5,367.5C 279.328,367.324 276.995,367.157 274.5,367C 273.667,366.167 272.833,365.333 272,364.5C 273.878,379.531 269.378,392.364 258.5,403C 248.179,408.03 237.512,408.696 226.5,405C 221.441,400.881 218.774,395.548 218.5,389C 219.185,378.406 222.685,368.906 229,360.5C 234.459,358.666 239.626,356.166 244.5,353C 251.723,350.907 258.723,351.574 265.5,355C 268.106,356.938 269.939,359.438 271,362.5C 270.947,359.387 272.114,356.887 274.5,355C 279.495,353.558 284.328,351.724 289,349.5C 290.248,339.18 294.082,330.013 300.5,322C 302.727,321.059 304.727,319.892 306.5,318.5 Z M 246.5,379.5 C 247.5,379.5 248.5,379.5 249.5,379.5C 250.405,388.07 246.739,393.07 238.5,394.5C 238.338,392.473 238.505,390.473 239,388.5C 242.088,385.919 244.588,382.919 246.5,379.5 Z"/></g>
</svg>
